<?xml version="1.0" standalone="no"?>
<!DOCTYPE svg PUBLIC "-//W3C//DTD SVG 20010904//EN"
 "http://www.w3.org/TR/2001/REC-SVG-20010904/DTD/svg10.dtd">
<svg version="1.0" xmlns="http://www.w3.org/2000/svg"
 width="1080.000000pt" height="1080.000000pt" viewBox="0 0 1080.000000 1080.000000"
 preserveAspectRatio="xMidYMid meet">

<g transform="translate(0.000000,1080.000000) scale(0.100000,-0.100000)"
fill="#000000" stroke="none">
<path d="M6387 6480 c-62 -34 -206 -129 -292 -192 -44 -33 -120 -77 -168 -98
-49 -22 -127 -67 -174 -101 -47 -34 -92 -62 -101 -63 -15 -1 -17 19 -17 200 0
148 -3 205 -13 216 -17 21 -53 27 -100 18 -20 -5 -64 -13 -97 -20 -103 -20
-95 19 -96 -474 0 -237 -4 -455 -8 -485 -4 -29 -6 -123 -3 -208 4 -124 8 -158
22 -175 32 -40 167 -41 248 -1 l37 18 0 258 0 258 81 79 c51 50 89 80 103 80
25 0 121 -52 144 -78 9 -10 21 -51 27 -92 6 -41 35 -158 63 -260 51 -182 53
-185 104 -240 59 -64 132 -106 248 -144 99 -33 166 -33 220 -3 52 29 67 59 61
122 -7 82 -30 118 -87 138 -62 22 -162 114 -195 178 -13 26 -35 87 -49 136
-69 236 -103 323 -150 375 -69 77 -65 85 68 172 134 87 161 102 241 128 34 11
67 25 74 30 29 25 -2 151 -51 204 -42 45 -88 53 -140 24z"/>
<path d="M4060 6464 c-126 -19 -123 -11 -117 -269 4 -198 6 -217 36 -330 67
-247 114 -364 208 -509 106 -164 223 -247 381 -267 81 -10 100 -9 155 6 86 24
296 127 329 162 15 15 39 60 53 98 15 39 40 94 57 124 28 48 31 62 31 140 0
47 -4 136 -8 196 -5 69 -3 174 5 282 10 134 11 187 1 243 -21 131 -44 150
-150 132 -39 -7 -82 -8 -127 -1 -91 13 -114 -1 -114 -69 0 -26 5 -65 10 -87
31 -138 52 -336 48 -460 -5 -151 -21 -208 -83 -299 -44 -66 -85 -92 -158 -102
l-47 -7 -68 70 c-79 80 -101 127 -132 282 -12 58 -23 108 -26 112 -13 22 -35
324 -30 415 7 116 2 126 -74 143 -55 13 -72 12 -180 -5z"/>
<path d="M7410 6471 c-25 -7 -40 -36 -99 -206 -16 -44 -54 -141 -85 -215 -32
-74 -80 -189 -108 -255 -28 -66 -59 -138 -69 -160 -9 -22 -42 -98 -72 -170
-114 -268 -123 -303 -88 -346 16 -20 30 -24 93 -27 69 -4 76 -2 106 23 18 15
47 59 66 98 18 40 45 97 60 128 18 39 35 60 54 68 84 33 505 32 569 -2 38 -20
91 -83 100 -117 16 -67 116 -213 153 -225 42 -13 137 70 160 140 18 55 7 88
-74 209 -40 61 -96 152 -123 201 -69 124 -154 264 -222 365 -31 47 -95 159
-141 250 -46 91 -92 177 -103 192 -34 46 -111 67 -177 49z m191 -611 c32 -63
58 -122 59 -131 0 -12 -14 -18 -61 -23 -147 -15 -207 -2 -195 43 2 9 8 27 11
41 23 82 89 193 112 188 9 -2 41 -53 74 -118z"/>
<path d="M3165 6415 c-27 -7 -67 -16 -87 -19 -63 -11 -73 -28 -176 -301 -17
-44 -38 -107 -47 -140 -34 -124 -59 -193 -110 -305 -28 -63 -62 -144 -75 -180
-13 -36 -33 -81 -45 -100 -12 -19 -26 -46 -30 -60 -4 -14 -20 -49 -35 -78 -31
-59 -29 -83 8 -112 20 -16 40 -20 106 -20 119 0 130 9 199 163 31 70 57 130
57 134 0 5 12 21 26 36 l26 29 207 -4 c139 -2 213 -7 228 -15 11 -7 36 -36 53
-65 18 -29 73 -106 122 -170 87 -114 154 -181 289 -290 36 -29 86 -69 110 -89
24 -20 67 -48 94 -62 65 -32 229 -87 262 -87 29 0 93 59 93 86 0 9 7 41 17 70
21 69 13 78 -85 100 -91 20 -118 32 -197 93 -123 93 -158 129 -254 261 -121
167 -149 209 -245 384 -43 76 -94 164 -115 195 -21 31 -70 131 -109 222 -109
254 -140 317 -161 329 -25 13 -62 11 -126 -5z m34 -477 c74 -167 77 -179 57
-193 -10 -8 -49 -19 -86 -25 -75 -13 -110 -4 -110 28 -1 34 84 252 97 252 8 0
26 -28 42 -62z"/>
<path d="M4849 4595 c-35 -19 -55 -68 -43 -103 8 -24 24 -35 104 -72 8 -4 15
-16 15 -26 0 -23 -48 -32 -71 -13 -12 10 -19 7 -40 -12 l-25 -24 21 -17 c25
-21 99 -24 133 -7 52 26 72 85 43 124 -7 10 -33 26 -57 35 -76 30 -77 78 -1
65 57 -10 85 31 37 53 -34 16 -84 14 -116 -3z"/>
<path d="M8101 4597 c-75 -38 -78 -115 -6 -149 67 -33 70 -35 73 -52 5 -23
-25 -31 -62 -18 -27 11 -33 9 -55 -12 l-24 -24 31 -16 c17 -9 52 -16 77 -16
38 0 52 5 76 29 55 56 30 128 -51 146 -42 9 -58 32 -37 53 14 14 22 14 47 5
27 -10 32 -9 50 15 l21 26 -32 13 c-39 16 -77 16 -108 0z"/>
<path d="M2550 4576 c0 -21 5 -25 38 -28 l37 -3 5 -115 5 -115 28 -3 27 -3 0
114 c0 125 1 127 61 127 24 0 29 4 29 25 l0 25 -115 0 -115 0 0 -24z"/>
<path d="M2887 4593 c-9 -8 -9 -246 -1 -267 5 -13 24 -16 99 -16 86 0 94 2
100 20 9 29 -11 49 -43 44 -15 -3 -42 -3 -59 1 -27 5 -33 11 -33 30 0 24 3 25
60 25 l60 0 0 30 0 30 -60 0 c-57 0 -60 1 -60 25 0 23 4 24 63 27 59 3 62 4
65 31 l3 27 -94 0 c-51 0 -97 -3 -100 -7z"/>
<path d="M3212 4458 l3 -143 27 -3 c26 -3 27 -2 30 55 4 75 22 76 63 3 26 -47
35 -55 63 -58 39 -4 40 4 5 68 -25 46 -26 52 -12 63 46 35 50 88 10 128 -28
27 -34 29 -111 29 l-81 0 3 -142z m129 82 c26 -15 24 -39 -5 -50 -33 -12 -60
-6 -64 14 -9 42 25 59 69 36z"/>
<path d="M3577 4463 c-31 -76 -57 -141 -57 -145 0 -5 13 -8 30 -8 23 0 33 7
45 30 14 28 20 30 70 30 50 0 56 -2 70 -30 12 -23 22 -30 45 -30 18 0 30 5 29
13 0 6 -26 71 -58 142 -53 122 -59 130 -86 133 -29 2 -31 0 -88 -135z m108 -5
c6 -25 5 -28 -19 -28 -28 0 -34 17 -15 52 13 23 25 15 34 -24z"/>
<path d="M3920 4455 l0 -146 28 3 c25 3 27 7 32 58 l5 55 54 5 c64 7 91 33 91
90 0 58 -25 74 -126 79 l-84 3 0 -147z m128 83 c31 -31 -9 -71 -53 -54 -15 5
-21 47 -8 59 11 11 48 8 61 -5z"/>
<path d="M4242 4458 l3 -143 30 0 30 0 0 140 0 140 -33 3 -33 3 3 -143z"/>
<path d="M4522 4578 c-19 -38 -52 -117 -52 -123 0 -3 -11 -28 -25 -57 -34 -69
-33 -88 4 -88 22 0 31 6 41 30 12 28 15 30 70 30 55 0 59 -1 69 -30 8 -25 15
-30 42 -30 29 0 31 2 26 28 -3 15 -20 59 -37 97 -17 39 -41 91 -52 118 -18 39
-26 47 -48 47 -18 0 -30 -8 -38 -22z m57 -130 c1 -13 -7 -18 -25 -18 -22 0
-24 3 -18 23 3 12 11 28 17 35 9 11 12 11 18 -5 4 -10 8 -26 8 -35z"/>
<path d="M5312 4458 l3 -143 28 -3 27 -3 0 90 c0 49 3 92 8 95 4 2 33 -38 65
-90 57 -93 58 -94 97 -94 l40 0 0 145 0 145 -30 0 -30 0 0 -85 c0 -47 -4 -85
-8 -85 -5 0 -32 38 -61 85 l-52 85 -45 0 -45 0 3 -142z"/>
<path d="M5804 4588 c-16 -25 -114 -253 -114 -265 0 -8 13 -13 30 -13 23 0 33
7 45 30 14 28 20 30 70 30 49 0 55 -2 67 -27 10 -21 22 -29 46 -31 21 -2 32 1
32 10 -1 7 -27 72 -59 143 -51 114 -61 130 -84 133 -14 2 -29 -3 -33 -10z m45
-119 c14 -41 15 -39 -14 -39 -26 0 -29 9 -19 48 9 31 20 28 33 -9z"/>
<path d="M6020 4576 c0 -21 5 -25 38 -28 l37 -3 2 -95 c4 -130 7 -142 41 -138
l27 3 5 115 5 115 38 3 c32 3 37 7 37 28 l0 24 -115 0 -115 0 0 -24z"/>
<path d="M6357 4593 c-9 -8 -9 -135 0 -186 3 -23 18 -50 35 -68 25 -25 37 -29
82 -29 97 0 129 52 124 200 l-3 85 -30 0 -30 0 -3 -95 c-3 -102 -15 -130 -57
-130 -43 0 -55 28 -55 133 l0 97 -28 0 c-16 0 -32 -3 -35 -7z"/>
<path d="M6729 4563 c-2 -21 -3 -86 -1 -145 l3 -108 30 0 c29 0 29 0 29 61 0
78 20 77 62 -3 28 -53 33 -58 64 -58 42 0 42 10 5 70 l-29 47 26 26 c34 34 35
88 4 120 -19 18 -36 23 -106 25 l-84 4 -3 -39z m136 -27 c10 -7 16 -20 12 -28
-6 -16 -62 -32 -78 -22 -10 6 -12 48 -2 57 11 12 48 8 68 -7z"/>
<path d="M7098 4466 c-32 -74 -58 -139 -58 -145 0 -6 14 -11 31 -11 25 0 33 6
42 30 11 28 14 30 67 30 51 0 56 -2 72 -30 13 -23 24 -30 48 -30 18 0 30 5 29
13 0 6 -26 71 -58 142 -53 121 -59 130 -87 133 -28 2 -30 -1 -86 -132z m112
-23 c0 -8 -12 -13 -30 -13 -35 0 -35 1 -14 42 l16 32 14 -25 c7 -13 13 -30 14
-36z"/>
<path d="M7440 4455 l0 -146 88 3 c87 3 87 3 90 31 3 27 2 27 -51 27 -41 0
-56 4 -61 16 -3 9 -6 60 -6 115 l0 99 -30 0 -30 0 0 -145z"/>
<path d="M7732 4458 l3 -143 95 0 95 0 3 28 c3 26 2 27 -47 28 -28 1 -55 3
-61 4 -5 1 -15 3 -21 4 -6 0 -9 11 -7 24 3 19 10 23 63 27 56 5 60 7 60 30 0
23 -4 25 -60 30 -52 4 -60 8 -60 25 0 18 8 20 63 23 61 3 62 3 62 32 l0 30
-95 0 -96 0 3 -142z"/>
</g>
</svg>
